Coordinates
version=1
nRows=13
nColumns=22
inDegrees=yes

Units are S.I. units (second, meters, Newtons, ...)
If the header above contains a line with 'inDegrees', this indicates whether rotational values are in degrees (yes) or radians (no).

endheader
time	pelvis_tilt	pelvis_list	pelvis_rotation	pelvis_tx	pelvis_ty	pelvis_tz	hip_flexion_r	hip_adduction_r	hip_rotation_r	knee_angle_r	ankle_angle_r	subtalar_angle_r	hip_flexion_l	hip_adduction_l	hip_rotation_l	knee_angle_l	ankle_angle_l	subtalar_angle_l	lumbar_extension	lumbar_bending	lumbar_rotation
      6.46000000	     -6.16558583	     -0.34556018	    288.01443097	     -0.44482481	      1.00836654	      0.19847540	     16.16408259	      8.65897179	      6.53480471	    -18.70082900	      4.96399033	      3.61243611	     10.34081882	     -6.85885267	     -4.02928492	    -58.96343816	     -0.32858825	     -4.97903581	    -12.68879245	     10.20593125	      4.80758828
      6.47000000	     -6.16590875	     -0.52915644	    288.47169791	     -0.44521121	      1.00910967	      0.20350701	     15.63940640	      8.78212125	      6.23310105	    -18.58372857	      5.18574604	      3.41571934	     10.87866956	     -7.45277899	     -5.12090524	    -59.58282868	      0.53362507	     -5.25455119	    -12.88816461	     10.13014770	      5.10268029
      6.48000000	     -6.10590649	     -0.70137373	    288.90914637	     -0.44538731	      1.00990210	      0.20844774	     15.10114374	      8.83019887	      5.92186971	    -18.45601292	      5.43015313	      3.23311038	     11.34301925	     -7.87515051	     -6.06747942	    -59.97046573	      1.37221412	     -5.49707498	    -13.08535942	     10.00997400	      5.40750951
      6.49000000	     -6.00935729	     -0.84138054	    289.33703248	     -0.44537923	      1.01067441	      0.21325608	     14.59414313	      8.82135688	      5.60796858	    -18.34455191	      5.68557480	      3.11729911	     11.78470105	     -8.14610278	     -6.86977279	    -60.15722600	      2.13929038	     -5.58350680	    -13.25692806	      9.86708359	      5.66615384
      6.50000000	     -5.87702225	     -0.95920108	    289.76874990	     -0.44515224	      1.01144163	      0.21794002	     14.09501533	      8.75340696	      5.27384220	    -18.22665786	      5.96476591	      3.03034934	     12.19671702	     -8.26033905	     -7.50745995	    -60.14739757	      2.81594695	     -5.53454770	    -13.40809246	      9.70829588	      5.90287324
      6.51000000	     -5.73717634	     -1.03983064	    290.21182587	     -0.44474066	      1.01213869	      0.22249963	     13.63156343	      8.65210479	      4.92804206	    -18.10737733	      6.26646465	      2.98804512	     12.61798650	     -8.25970768	     -7.99548797	    -59.97040146	      3.41529499	     -5.36635422	    -13.51279329	      9.55728930	      6.08325828
      6.52000000	     -5.59506338	     -1.12387283	    290.66060417	     -0.44417883	      1.01282431	      0.22695198	     13.16346726	      8.53843572	      4.54417592	    -17.98152736	      6.53998712	      2.96600337	     13.00889943	     -8.18240645	     -8.35189408	    -59.63791789	      3.95388500	     -4.98791794	    -13.62047323	      9.42568697	      6.26731532
      6.53000000	     -5.47362647	     -1.18642517	    291.12977180	     -0.44350349	      1.01342134	      0.23131598	     12.71649738	      8.43169325	      4.15733456	    -17.83831216	      6.84133732	      2.97278159	     13.41357137	     -8.06496452	     -8.58724303	    -59.17762319	      4.49023096	     -4.54880417	    -13.68903348	      9.32460270	      6.40245633
      6.54000000	     -5.37897063	     -1.25022427	    291.59780278	     -0.44277798	      1.01395765	      0.23562983	     12.26923973	      8.35393944	      3.78162042	    -17.67609648	      7.12113564	      3.00300920	     13.80718470	     -7.95732226	     -8.76043270	    -58.60738476	      5.06650142	     -3.94785334	    -13.74548022	      9.25903071	      6.52214379
      6.55000000	     -5.30795057	     -1.31801064	    292.09298331	     -0.44198848	      1.01443558	      0.23987502	     11.81801337	      8.29825779	      3.38449814	    -17.49172326	      7.41238518	      3.04896736	     14.19720001	     -7.85920807	     -8.84703644	    -57.94338659	      5.67088707	     -3.35747983	    -13.79302965	      9.22531045	      6.61429726
      6.56000000	     -5.27051365	     -1.39084432	    292.59004014	     -0.44120134	      1.01484467	      0.24408462	     11.36934621	      8.28444078	      2.99057482	    -17.29155295	      7.70527732	      3.11158432	     14.58290100	     -7.80623075	     -8.89616935	    -57.20339965	      6.31510443	     -2.77607758	    -13.83261417	      9.22353463	      6.70579587
      6.57000000	     -5.25950791	     -1.47089613	    293.09931223	     -0.44041034	      1.01519569	      0.24824351	     10.91992018	      8.30426598	      2.59405911	    -17.07589828	      7.99744766	      3.19198774	     14.96645668	     -7.79970901	     -8.91498347	    -56.40202793	      6.99046238	     -2.26362948	    -13.86958742	      9.24705000	      6.78224044
      6.58000000	     -5.28058672	     -1.54958578	    293.61240338	     -0.43963082	      1.01546192	      0.25236638	     10.49137830	      8.36064998	      2.17442042	    -16.86440404	      8.31037685	      3.26225699	     15.36150290	     -7.85220125	     -8.92851313	    -55.55522439	      7.68472748	     -1.96377619	    -13.89285218	      9.29599760	      6.84980372
